# xmcd CD database file
#
# Track frame offsets:
#	150
#	51589
#	87728
#	131884
#	176696
#	218357
#
# Disc length: 3009 seconds
#
# Revision: 0
# Processed by: cddbd v1.5.2PL0 Copyright (c) Steve Scherf et al.
# Submitted via: CDex 1.50
#
DISCID=590bbf06
DTITLE=Walter Bishop Jr. - Live In Paris
DYEAR=1989
DGENRE=Jazz
TTITLE0=Spring Is Here - Up Jumped Spring
TTITLE1=What Is This Thing Called Love
TTITLE2=Speak No Evil
TTITLE3='Round Midnight
TTITLE4=Sweet Rosa
TTITLE5=No Blues
EXTD=YEAR: 1989
EXTT0=
EXTT1=
EXTT2=
EXTT3=
EXTT4=
EXTT5=
PLAYORDER=
